#!OML:ASF H:\Punching\Project 1\Capture day 1\Session 1\female.ASF
:FULLY-SPECIFIED
:DEGREES
4103
root -0.765505 15.773 -5.30415 373.87 58.6267 -2.37944
lowerback -7.06861 2.83368 5.83146
upperback -6.30264 3.6317 -1.25502
thorax -2.16352 1.66133 -4.3751
lowerneck -6.2824 10.3836 18.5351
upperneck 33.6159 19.1321 -15.6343
head 16.7341 9.44152 -6.50907
rclavicle -5.91021e-014 -2.12451e-014
rhumerus -32.5313 -5.72149 -71.8236
rradius 23.9927
rwrist 13.0623
rhand -18.6671 -8.81146
rfingers 7.12502
rthumb 7.62647 -38.6539
lclavicle -5.91021e-014 -2.12451e-014
lhumerus -48.2474 9.7914 65.8408
lradius 27.1845
lwrist -23.0259
lhand -6.26261 13.0399
lfingers 7.12502
lthumb 19.5799 42.074
rfemur -6.8565 -4.41293 29.2698
rtibia 10.5759
rfoot -26.4135 -44.6524
rtoes 18.2745
lfemur -36.4526 -5.08464 -16.044
ltibia 24.2277
lfoot -22.9206 33.2781
ltoes 17.3159
4104
root -0.694365 15.759 -5.29681 373.7 58.9059 -2.56706
lowerback -7.15617 2.91651 5.78439
upperback -6.33083 3.74121 -1.30508
thorax -2.13116 1.71853 -4.38992
lowerneck -6.40505 10.3008 18.5346
upperneck 33.6817 18.9356 -15.4864
head 16.7198 9.36625 -6.48148
rclavicle -1.94068e-014 7.64079e-016
rhumerus -32.2747 -5.30467 -72.15
rradius 24.3332
rwrist 12.3489
rhand -18.6543 -8.84675
rfingers 7.12502
rthumb 7.6388 -38.6888
lclavicle -1.94068e-014 7.64079e-016
lhumerus -48.7132 9.99549 65.3415
lradius 27.01
lwrist -23.1273
lhand -6.05156 13.0848
lfingers 7.12502
lthumb 19.7828 42.0981
rfemur -6.52109 -4.54446 29.2698
rtibia 10.495
rfoot -26.5198 -44.7756
rtoes 17.9514
lfemur -36.1587 -4.90972 -16.2947
ltibia 24.3592
lfoot -22.7996 33.1023
ltoes 17.0377
4105
root -0.620516 15.7469 -5.29005 373.527 59.1545 -2.74947
lowerback -7.23531 3.00198 5.73518
upperback -6.36439 3.85515 -1.35751
thorax -2.10858 1.77759 -4.40607
lowerneck -6.52492 10.2173 18.5385
upperneck 33.7517 18.7372 -15.3357
head 16.7073 9.29146 -6.45406
rclavicle -5.95533e-014 -1.26477e-014
rhumerus -32.0465 -4.87062 -72.4854
rradius 24.701
rwrist 11.6354
rhand -18.6219 -8.88941
rfingers 7.12502
rthumb 7.67011 -38.7303
lclavicle -5.95533e-014 -1.26477e-014
lhumerus -49.2013 10.1748 64.8646
lradius 26.8787
lwrist -23.1813
lhand -5.82182 13.1149
lfingers 7.12502
lthumb 20.0036 42.1052
rfemur -6.11953 -4.686 29.2512
rtibia 10.3114
rfoot -26.5043 -44.8806
rtoes 17.5735
lfemur -35.871 -4.72815 -16.5493
ltibia 24.5006
lfoot -22.6683 32.9586
ltoes 16.6047
4106
root -0.54404 15.7375 -5.28435 373.366 59.3683 -2.92033
lowerback -7.31058 3.08962 5.68453
upperback -6.40356 3.97262 -1.41206
thorax -2.09359 1.83813 -4.42357
lowerneck -6.64284 10.1354 18.5449
upperneck 33.8239 18.5421 -15.1864
head 16.6977 9.21861 -6.42719
rclavicle -6.88005e-014 -2.48481e-016
rhumerus -31.8382 -4.42553 -72.8241
rradius 25.0867
rwrist 10.9519
rhand -18.5717 -8.92028
rfingers 7.12502
rthumb 7.71859 -38.7594
lclavicle -6.88005e-014 -2.48481e-016
lhumerus -49.7077 10.3211 64.4329
lradius 26.7955
lwrist -23.144
lhand -5.60568 13.1839
lfingers 7.12502
lthumb 20.2114 42.1524
rfemur -5.64691 -4.80133 29.2037
rtibia 9.99297
rfoot -26.3281 -45.0063
rtoes 17.1185
lfemur -35.6185 -4.63341 -16.7513
ltibia 24.6341
lfoot -22.58 32.9085
ltoes 16.0381
4107
root -0.464921 15.7311 -5.27945 373.223 59.5502 -3.05449
lowerback -7.37507 3.17588 5.61715
upperback -6.4401 4.08947 -1.47121
thorax -2.08246 1.89869 -4.43681
lowerneck -6.76532 10.0574 18.5474
upperneck 33.8993 18.3504 -15.031
head 16.691 9.14705 -6.39581
rclavicle 2.24665e-014 3.08116e-015
rhumerus -31.6458 -3.98676 -73.1656
rradius 25.4902
rwrist 10.321
rhand -18.5237 -8.95409
rfingers 7.12502
rthumb 7.76492 -38.7915
lclavicle 2.24665e-014 3.08116e-015
lhumerus -50.2264 10.4979 63.9824
lradius 26.7377
lwrist -23.1022
lhand -5.36164 13.1964
lfingers 7.12502
lthumb 20.4459 42.1399
rfemur -5.09143 -4.89404 29.1158
rtibia 9.5508
rfoot -26.0192 -45.1445
rtoes 16.5935
lfemur -35.392 -4.68187 -16.8794
ltibia 24.7418
lfoot -22.5368 32.954
ltoes 15.4055
4108
root -0.382646 15.7275 -5.27693 373.145 59.7253 -3.09139
lowerback -7.41974 3.25218 5.53549
upperback -6.47148 4.19434 -1.55032
thorax -2.07768 1.95311 -4.46449
lowerneck -6.89333 9.98416 18.5532
upperneck 33.979 18.1626 -14.8706
head 16.6894 9.07778 -6.36162
rclavicle -5.01729e-014 -2.55438e-014
rhumerus -31.471 -3.56206 -73.5131
rradius 25.9062
rwrist 9.74378
rhand -18.482 -8.97073
rfingers 7.12502
rthumb 7.80516 -38.8067
lclavicle -5.01729e-014 -2.55438e-014
lhumerus -50.7496 10.6382 63.5784
lradius 26.7143
lwrist -23.0098
lhand -5.17459 13.2512
lfingers 7.12502
lthumb 20.6257 42.1754
rfemur -4.48213 -4.99747 28.9481
rtibia 9.05787
rfoot -25.6055 -45.2966
rtoes 15.9482
lfemur -35.1741 -4.88592 -16.976
ltibia 24.8055
lfoot -22.4828 33.0283
ltoes 14.8106
4109
root -0.298636 15.7254 -5.27589 373.124 59.8739 -3.05856
lowerback -7.45299 3.32568 5.42879
upperback -6.50313 4.29724 -1.64217
thorax -2.08028 2.0069 -4.49216
lowerneck -7.02398 9.91323 18.5658
upperneck 34.0619 17.9756 -14.708
head 16.6915 9.00987 -6.32743
rclavicle 3.56834e-014 2.41523e-014
rhumerus -31.318 -3.14912 -73.8678
rradius 26.3397
rwrist 9.2056
rhand -18.4656 -8.97803
rfingers 7.12502
rthumb 7.82097 -38.8134
lclavicle 3.56834e-014 2.41523e-014
lhumerus -51.2736 10.7734 63.1908
lradius 26.7093
lwrist -22.933
lhand -4.99396 13.2848
lfingers 7.12502
lthumb 20.7992 42.19
rfemur -3.88964 -5.07001 28.7242
rtibia 8.61699
rfoot -25.1792 -45.4529
rtoes 15.1966
lfemur -34.9602 -5.1912 -17.044
ltibia 24.8179
lfoot -22.3863 33.0807
ltoes 14.4896
4110
root -0.213554 15.7234 -5.27581 373.158 60.008 -2.9403
lowerback -7.4527 3.39823 5.29646
upperback -6.53308 4.40153 -1.75884
thorax -2.09918 2.06124 -4.53316
lowerneck -7.17309 9.84204 18.5886
upperneck 34.1612 17.777 -14.5253
head 16.703 8.93947 -6.28809
rclavicle -4.19374e-014 -1.33186e-014
rhumerus -31.2039 -2.77889 -74.2303
rradius 26.7986
rwrist 8.70254
rhand -18.4646 -8.96413
rfingers 7.12502
rthumb 7.82196 -38.7994
lclavicle -4.19374e-014 -1.33186e-014
lhumerus -51.7796 10.862 62.8322
lradius 26.7202
lwrist -22.857
lhand -4.82001 13.3038
lfingers 7.12502
lthumb 20.9663 42.1906
rfemur -3.34089 -5.14805 28.4436
rtibia 8.32947
rfoot -24.8255 -45.564
rtoes 14.3404
lfemur -34.7043 -5.46379 -17.1691
ltibia 24.7804
lfoot -22.1021 33.0237
ltoes 14.4658
4111
root -0.127412 15.7215 -5.27669 373.241 60.1269 -2.76027
lowerback -7.43939 3.47158 5.14486
upperback -6.56596 4.50842 -1.89309
thorax -2.12799 2.11694 -4.5825
lowerneck -7.32749 9.76814 18.6203
upperneck 34.2688 17.5661 -14.3289
head 16.7168 8.86648 -6.24663
rclavicle -1.54307e-014 -1.98785e-015
rhumerus -31.1275 -2.44799 -74.596
rradius 27.2855
rwrist 8.208
rhand -18.4574 -8.94447
rfingers 7.12502
rthumb 7.8289 -38.7795
lclavicle -1.54307e-014 -1.98785e-015
lhumerus -52.2663 10.9318 62.493
lradius 26.7308
lwrist -22.8097
lhand -4.70146 13.3609
lfingers 7.12502
lthumb 21.0802 42.235
rfemur -2.86441 -5.21854 28.1132
rtibia 8.2254
rfoot -24.5484 -45.6119
rtoes 13.3602
lfemur -34.4055 -5.58703 -17.4038
ltibia 24.7109
lfoot -21.6109 32.8043
ltoes 14.6945
4112
root -0.0406853 15.7204 -5.27739 373.355 60.2339 -2.53151
lowerback -7.40698 3.54731 4.96788
upperback -6.60087 4.62047 -2.04195
thorax -2.16947 2.17552 -4.6339
lowerneck -7.49376 9.68893 18.6563
upperneck 34.3915 17.3366 -14.1097
head 16.7348 8.78832 -6.1996
rclavicle -2.16178e-014 -1.05356e-014
rhumerus -31.0994 -2.16874 -74.965
rradius 27.8074
rwrist 7.69476
rhand -18.4875 -8.91399
rfingers 7.12502
rthumb 7.79987 -38.7501
lclavicle -2.16178e-014 -1.05356e-014
lhumerus -52.7243 10.964 62.1855
lradius 26.7433
lwrist -22.7458
lhand -4.61858 13.4536
lfingers 7.12502
lthumb 21.1598 42.3189
rfemur -2.44852 -5.28437 27.7418
rtibia 8.31768
rfoot -24.3688 -45.5435
rtoes 12.3383
lfemur -34.0496 -5.4607 -17.787
ltibia 24.6186
lfoot -20.8448 32.3969
ltoes 15.0004
4113
root 0.0463956 15.721 -5.27749 373.495 60.3349 -2.26007
lowerback -7.35877 3.62251 4.76232
upperback -6.63668 4.73366 -2.19815
thorax -2.22194 2.2353 -4.67816
lowerneck -7.66276 9.60416 18.6829
upperneck 34.5202 17.0922 -13.8717
head 16.7499 8.70505 -6.14545
rclavicle 2.86685e-014 -3.77691e-015
rhumerus -31.1123 -1.9268 -75.3379
rradius 28.3591
rwrist 7.15825
rhand -18.5539 -8.87791
rfingers 7.12502
rthumb 7.73572 -38.7164
lclavicle 2.86685e-014 -3.77691e-015
lhumerus -53.1488 10.9669 61.908
lradius 26.752
lwrist -22.642
lhand -4.5596 13.5734
lfingers 7.12502
lthumb 21.2165 42.4323
rfemur -2.07526 -5.35061 27.3293
rtibia 8.58085
rfoot -24.2783 -45.3129
rtoes 11.2972
lfemur -33.6434 -5.11405 -18.2946
ltibia 24.5101
lfoot -19.9253 31.8159
ltoes 15.3222
4114
root 0.133918 15.7234 -5.27797 373.696 60.4344 -1.91922
lowerback -7.30766 3.69195 4.52638
upperback -6.67544 4.8405 -2.36475
thorax -2.28137 2.29276 -4.71732
lowerneck -7.82136 9.5156 18.7109
upperneck 34.644 16.8426 -13.6356
head 16.7601 8.62071 -6.09373
rclavicle 3.73218e-014 1.19271e-015
rhumerus -31.1533 -1.7493 -75.7075
rradius 28.9293
rwrist 6.63367
rhand -18.6543 -8.8365
rfingers 7.12502
rthumb 7.63883 -38.6785
lclavicle 3.73218e-014 1.19271e-015
lhumerus -53.5403 10.97 61.6473
lradius 26.7546
lwrist -22.4892
lhand -4.52334 13.7417
lfingers 7.12502
lthumb 21.2513 42.5967
rfemur -1.76378 -5.42419 26.8524
rtibia 9.01543
rfoot -24.2078 -44.9218
rtoes 10.2046
lfemur -33.2087 -4.66827 -18.8875
ltibia 24.3766
lfoot -19.0108 31.1242
ltoes 15.531
